<svg xmlns="http://www.w3.org/2000/svg" viewBox="0 0 1200 630" role="img" aria-label="AI illustration of a digital banking dashboard">
  <defs>
    <linearGradient id="bg-banking" x1="0" x2="1" y1="0" y2="1">
      <stop offset="0%" stop-color="#0f172a" />
      <stop offset="55%" stop-color="#0ea5e9" />
      <stop offset="100%" stop-color="#22d3ee" />
    </linearGradient>
    <linearGradient id="glow-banking" x1="0" x2="1">
      <stop offset="0%" stop-color="#bae6fd" stop-opacity="0.8" />
      <stop offset="100%" stop-color="#38bdf8" stop-opacity="0.2" />
    </linearGradient>
  </defs>
  <rect width="1200" height="630" rx="48" fill="url(#bg-banking)" />
  <rect x="96" y="120" width="640" height="390" rx="32" fill="#0f172a" opacity="0.4" />
  <rect x="140" y="170" width="420" height="280" rx="24" fill="#0b1324" opacity="0.9" />
  <rect x="180" y="210" width="340" height="48" rx="16" fill="#38bdf8" opacity="0.35" />
  <rect x="180" y="280" width="260" height="36" rx="12" fill="#bae6fd" opacity="0.35" />
  <rect x="180" y="340" width="300" height="36" rx="12" fill="#7dd3fc" opacity="0.35" />
  <g fill="url(#glow-banking)">
    <path d="M850 190l110 40-40 110-110-40z" />
    <circle cx="960" cy="330" r="64" />
  </g>
  <g fill="none" stroke="#e0f2fe" stroke-width="3" opacity="0.6">
    <path d="M780 420h210" />
    <path d="M780 450h150" />
    <circle cx="820" cy="420" r="6" fill="#e0f2fe" />
    <circle cx="940" cy="450" r="6" fill="#e0f2fe" />
  </g>
  <g fill="#e2e8f0" opacity="0.9">
    <path d="M840 250h160l-80-80z" />
    <rect x="840" y="250" width="160" height="130" rx="22" />
    <rect x="870" y="280" width="100" height="16" rx="8" fill="#0ea5e9" />
    <rect x="870" y="310" width="120" height="14" rx="7" fill="#7dd3fc" />
  </g>
  <g fill="none" stroke="#bae6fd" stroke-width="2" opacity="0.5">
    <path d="M120 520c120-60 240-60 360 0" />
    <path d="M520 520c120-60 240-60 360 0" />
  </g>
</svg>
