<svg xmlns="http://www.w3.org/2000/svg" viewBox="0 0 1200 630" role="img" aria-label="AI illustration of a budget tracking dashboard">
  <defs>
    <linearGradient id="bg-budget" x1="0" x2="1" y1="0" y2="1">
      <stop offset="0%" stop-color="#1e1b4b" />
      <stop offset="55%" stop-color="#6366f1" />
      <stop offset="100%" stop-color="#38bdf8" />
    </linearGradient>
  </defs>
  <rect width="1200" height="630" rx="48" fill="url(#bg-budget)" />
  <rect x="110" y="130" width="520" height="370" rx="28" fill="#0f172a" opacity="0.35" />
  <g fill="#e0f2fe" opacity="0.9">
    <rect x="170" y="320" width="70" height="140" rx="14" />
    <rect x="270" y="260" width="70" height="200" rx="14" />
    <rect x="370" y="230" width="70" height="230" rx="14" />
    <rect x="470" y="280" width="70" height="180" rx="14" />
  </g>
  <g fill="#7dd3fc" opacity="0.7">
    <circle cx="860" cy="240" r="120" />
    <circle cx="1000" cy="380" r="80" />
  </g>
  <g fill="#0f172a" opacity="0.75">
    <rect x="740" y="190" width="320" height="200" rx="24" />
    <rect x="780" y="230" width="180" height="22" rx="10" fill="#bae6fd" opacity="0.7" />
    <rect x="780" y="270" width="220" height="18" rx="9" fill="#7dd3fc" opacity="0.7" />
    <rect x="780" y="310" width="140" height="18" rx="9" fill="#38bdf8" opacity="0.7" />
  </g>
  <g stroke="#e0f2fe" stroke-width="2" opacity="0.55" fill="none">
    <path d="M140 520h240" />
    <path d="M420 520h240" />
    <circle cx="360" cy="520" r="5" fill="#e0f2fe" />
    <circle cx="640" cy="520" r="5" fill="#e0f2fe" />
  </g>
</svg>
