<svg xmlns="http://www.w3.org/2000/svg" viewBox="0 0 1200 630" role="img" aria-label="AI illustration of a smart calculator interface">
  <defs>
    <linearGradient id="bg-calc" x1="0" x2="1" y1="0" y2="1">
      <stop offset="0%" stop-color="#0f172a" />
      <stop offset="55%" stop-color="#14b8a6" />
      <stop offset="100%" stop-color="#22d3ee" />
    </linearGradient>
  </defs>
  <rect width="1200" height="630" rx="48" fill="url(#bg-calc)" />
  <rect x="180" y="110" width="520" height="410" rx="36" fill="#0b1324" opacity="0.9" />
  <rect x="230" y="150" width="420" height="70" rx="20" fill="#99f6e4" opacity="0.35" />
  <g fill="#e2e8f0" opacity="0.85">
    <rect x="230" y="250" width="100" height="70" rx="16" />
    <rect x="350" y="250" width="100" height="70" rx="16" />
    <rect x="470" y="250" width="100" height="70" rx="16" />
    <rect x="230" y="340" width="100" height="70" rx="16" />
    <rect x="350" y="340" width="100" height="70" rx="16" />
    <rect x="470" y="340" width="100" height="70" rx="16" />
  </g>
  <rect x="590" y="250" width="90" height="160" rx="18" fill="#2dd4bf" />
  <g stroke="#e0f2fe" stroke-width="2" opacity="0.6" fill="none">
    <path d="M760 210h200" />
    <path d="M760 250h160" />
    <circle cx="780" cy="210" r="6" fill="#e0f2fe" />
    <circle cx="900" cy="250" r="6" fill="#e0f2fe" />
  </g>
  <g fill="#99f6e4" opacity="0.7">
    <circle cx="900" cy="380" r="110" />
  </g>
</svg>
